<svg width="300" height="300" viewBox="0 0 300 300" fill="none" xmlns="http://www.w3.org/2000/svg">
<path d="M108.755 1.12912C108 2.05753 107.832 12.1859 108.252 42.3177C108.587 66.035 108.503 82.6624 108 83.3376C107.497 84.0972 96 85.5321 69.5664 88.1486C8.05594 94.31 3.86014 94.8164 1.76224 96.9265L0 98.7833L3.77622 106.042C10.5734 119.293 26.014 142.842 33.5664 151.62L36.2517 154.742L45.8182 153.223C77.8741 148.328 101.035 145.121 103.133 145.289C105.65 145.543 105.566 145.627 96.9231 156.093C75.6084 181.836 47.4965 211.461 19.2168 238.133C10.2378 246.489 2.93706 253.916 2.93706 254.507C2.93706 257.714 46.4056 284.217 62.4336 290.716L67.8042 292.91L70.3217 290.547C73.7622 287.34 88.8671 266.998 97.7622 253.578C105.483 241.931 117.399 222.265 124.196 209.858C126.462 205.806 128.476 202.515 128.727 202.515C128.979 202.515 130.909 205.469 133.007 209.014C139.552 220.492 145.93 229.608 156.503 243.028C172.364 263.032 202.657 292.657 213.315 298.481L216.084 300L223.385 296.286C249.063 283.457 300 247.67 300 242.437C300 240.918 297.902 240.074 285.734 237.035C271.972 233.659 218.853 219.395 203.916 215.091C173.119 206.228 134.685 193.146 134.685 191.627C134.685 190.783 161.538 137.524 162.042 137.524C162.21 137.524 169.259 136.596 177.65 135.499C205.259 131.785 210.126 131.278 211.469 132.46C212.559 133.389 212.727 138.79 212.727 170.019C212.727 203.696 212.811 206.566 214.238 207.748C215.916 209.351 225.902 212.137 251.329 218.129C269.455 222.434 270.294 222.518 271.804 221.083C273.566 219.395 273.063 222.771 281.538 150.185C284.811 122.585 288 95.4072 288.671 89.8366C290.517 75.1505 290.35 73.2936 287.58 70.5927L285.315 68.3983L233.874 73.1248C205.594 75.7413 182.35 77.6826 182.098 77.4294C181.846 77.1762 183.357 69.8331 185.455 61.1396C190.49 40.2921 192.587 30.4169 192.587 28.0536C192.587 20.7106 154.154 5.43365 125.371 1.2135C114.21 -0.390137 110.014 -0.390137 108.755 1.12912Z" fill="white"/>
</svg>
